<svg xmlns="http://www.w3.org/2000/svg" width="89" height="37" viewBox="0 0 89 37" fill="none"><path d="M38.865 34.075C38.5 34.075 38.165 34.01 37.86 33.88C37.555 33.75 37.29 33.565 37.065 33.325C36.84 33.08 36.665 32.7925 36.54 32.4625C36.42 32.1325 36.36 31.77 36.36 31.375C36.36 31 36.425 30.6525 36.555 30.3325C36.69 30.0075 36.875 29.7225 37.11 29.4775C37.345 29.2325 37.6175 29.0425 37.9275 28.9075C38.2375 28.7725 38.5725 28.705 38.9325 28.705C39.1875 28.705 39.435 28.745 39.675 28.825C39.92 28.9 40.14 29.0075 40.335 29.1475C40.535 29.2825 40.6975 29.4375 40.8225 29.6125L40.2825 30.175C40.1375 30.03 39.99 29.91 39.84 29.815C39.695 29.715 39.545 29.64 39.39 29.59C39.24 29.54 39.0875 29.515 38.9325 29.515C38.6875 29.515 38.4575 29.5625 38.2425 29.6575C38.0325 29.7475 37.8475 29.875 37.6875 30.04C37.5325 30.205 37.41 30.4025 37.32 30.6325C37.23 30.8575 37.185 31.105 37.185 31.375C37.185 31.66 37.2275 31.92 37.3125 32.155C37.4025 32.385 37.5275 32.5825 37.6875 32.7475C37.8475 32.9125 38.0375 33.04 38.2575 33.13C38.4825 33.215 38.73 33.2575 39 33.2575C39.165 33.2575 39.3275 33.235 39.4875 33.19C39.6475 33.145 39.7975 33.08 39.9375 32.995C40.0775 32.91 40.205 32.81 40.32 32.695L40.725 33.355C40.61 33.49 40.4525 33.6125 40.2525 33.7225C40.0575 33.8325 39.8375 33.92 39.5925 33.985C39.3525 34.045 39.11 34.075 38.865 34.075ZM43.4678 34.075C43.0628 34.075 42.7028 33.99 42.3878 33.82C42.0778 33.645 41.8328 33.4075 41.6528 33.1075C41.4778 32.8075 41.3903 32.4625 41.3903 32.0725C41.3903 31.7625 41.4403 31.48 41.5403 31.225C41.6403 30.97 41.7778 30.75 41.9528 30.565C42.1328 30.375 42.3453 30.23 42.5903 30.13C42.8403 30.025 43.1103 29.9725 43.4003 29.9725C43.6553 29.9725 43.8928 30.0225 44.1128 30.1225C44.3328 30.2175 44.5228 30.35 44.6828 30.52C44.8478 30.69 44.9728 30.8925 45.0578 31.1275C45.1478 31.3575 45.1903 31.61 45.1853 31.885L45.1778 32.215H41.9603L41.7878 31.6H44.5103L44.3978 31.7275V31.5475C44.3828 31.3825 44.3278 31.235 44.2328 31.105C44.1378 30.975 44.0178 30.8725 43.8728 30.7975C43.7278 30.7225 43.5703 30.685 43.4003 30.685C43.1303 30.685 42.9028 30.7375 42.7178 30.8425C42.5328 30.9425 42.3928 31.0925 42.2978 31.2925C42.2028 31.4875 42.1553 31.73 42.1553 32.02C42.1553 32.295 42.2128 32.535 42.3278 32.74C42.4428 32.94 42.6053 33.095 42.8153 33.205C43.0253 33.315 43.2678 33.37 43.5428 33.37C43.7378 33.37 43.9178 33.3375 44.0828 33.2725C44.2528 33.2075 44.4353 33.09 44.6303 32.92L45.0203 33.4675C44.9003 33.5875 44.7528 33.6925 44.5778 33.7825C44.4078 33.8725 44.2253 33.945 44.0303 34C43.8403 34.05 43.6528 34.075 43.4678 34.075ZM46.0249 34V30.0625H46.8049V31.3L46.7299 31C46.7849 30.81 46.8774 30.6375 47.0074 30.4825C47.1424 30.3275 47.2949 30.205 47.4649 30.115C47.6399 30.025 47.8199 29.98 48.0049 29.98C48.0899 29.98 48.1699 29.9875 48.2449 30.0025C48.3249 30.0175 48.3874 30.035 48.4324 30.055L48.2299 30.895C48.1699 30.87 48.1024 30.85 48.0274 30.835C47.9574 30.815 47.8874 30.805 47.8174 30.805C47.6824 30.805 47.5524 30.8325 47.4274 30.8875C47.3074 30.9375 47.1999 31.01 47.1049 31.105C47.0149 31.195 46.9424 31.3025 46.8874 31.4275C46.8324 31.5475 46.8049 31.68 46.8049 31.825V34H46.0249ZM49.6838 34V29.0575H50.4563V34H49.6838ZM48.8663 30.8125V30.0625H51.3713V30.8125H48.8663ZM52.2022 34V30.0625H52.9747V34H52.2022ZM52.5772 29.1925C52.4122 29.1925 52.2847 29.15 52.1947 29.065C52.1047 28.98 52.0597 28.86 52.0597 28.705C52.0597 28.56 52.1047 28.4425 52.1947 28.3525C52.2897 28.2625 52.4172 28.2175 52.5772 28.2175C52.7422 28.2175 52.8697 28.26 52.9597 28.345C53.0497 28.43 53.0947 28.55 53.0947 28.705C53.0947 28.85 53.0472 28.9675 52.9522 29.0575C52.8622 29.1475 52.7372 29.1925 52.5772 29.1925ZM54.5896 34V29.62C54.5896 29.395 54.6396 29.195 54.7396 29.02C54.8396 28.845 54.9771 28.7075 55.1521 28.6075C55.3271 28.5075 55.5296 28.4575 55.7596 28.4575C55.9196 28.4575 56.0696 28.4875 56.2096 28.5475C56.3496 28.6075 56.4621 28.6875 56.5471 28.7875L56.2846 29.38C56.2196 29.32 56.1471 29.2725 56.0671 29.2375C55.9921 29.1975 55.9196 29.1775 55.8496 29.1775C55.7446 29.1775 55.6546 29.195 55.5796 29.23C55.5096 29.26 55.4571 29.31 55.4221 29.38C55.3871 29.445 55.3696 29.525 55.3696 29.62V34H54.9796C54.9146 34 54.8496 34 54.7846 34C54.7196 34 54.6546 34 54.5896 34ZM53.9596 30.8425V30.13H56.2996V30.8425H53.9596ZM57.2371 34V30.0625H58.0096V34H57.2371ZM57.6121 29.1925C57.4471 29.1925 57.3196 29.15 57.2296 29.065C57.1396 28.98 57.0946 28.86 57.0946 28.705C57.0946 28.56 57.1396 28.4425 57.2296 28.3525C57.3246 28.2625 57.4521 28.2175 57.6121 28.2175C57.7771 28.2175 57.9046 28.26 57.9946 28.345C58.0846 28.43 58.1296 28.55 58.1296 28.705C58.1296 28.85 58.0821 28.9675 57.9871 29.0575C57.8971 29.1475 57.7721 29.1925 57.6121 29.1925ZM61.0313 34.075C60.6263 34.075 60.2663 33.99 59.9513 33.82C59.6413 33.645 59.3963 33.4075 59.2163 33.1075C59.0413 32.8075 58.9538 32.4625 58.9538 32.0725C58.9538 31.7625 59.0038 31.48 59.1038 31.225C59.2038 30.97 59.3413 30.75 59.5163 30.565C59.6963 30.375 59.9088 30.23 60.1538 30.13C60.4038 30.025 60.6738 29.9725 60.9638 29.9725C61.2188 29.9725 61.4563 30.0225 61.6763 30.1225C61.8963 30.2175 62.0863 30.35 62.2463 30.52C62.4113 30.69 62.5363 30.8925 62.6213 31.1275C62.7113 31.3575 62.7538 31.61 62.7488 31.885L62.7413 32.215H59.5238L59.3513 31.6H62.0738L61.9613 31.7275V31.5475C61.9463 31.3825 61.8913 31.235 61.7963 31.105C61.7013 30.975 61.5813 30.8725 61.4363 30.7975C61.2913 30.7225 61.1338 30.685 60.9638 30.685C60.6938 30.685 60.4663 30.7375 60.2813 30.8425C60.0963 30.9425 59.9563 31.0925 59.8613 31.2925C59.7663 31.4875 59.7188 31.73 59.7188 32.02C59.7188 32.295 59.7763 32.535 59.8913 32.74C60.0063 32.94 60.1688 33.095 60.3788 33.205C60.5888 33.315 60.8313 33.37 61.1063 33.37C61.3013 33.37 61.4813 33.3375 61.6463 33.2725C61.8163 33.2075 61.9988 33.09 62.1938 32.92L62.5838 33.4675C62.4638 33.5875 62.3163 33.6925 62.1413 33.7825C61.9713 33.8725 61.7888 33.945 61.5938 34C61.4038 34.05 61.2163 34.075 61.0313 34.075ZM65.2308 34.075C64.8708 34.075 64.5483 33.9875 64.2633 33.8125C63.9833 33.6325 63.7608 33.39 63.5958 33.085C63.4308 32.775 63.3483 32.4225 63.3483 32.0275C63.3483 31.6325 63.4283 31.2825 63.5883 30.9775C63.7533 30.6675 63.9758 30.425 64.2558 30.25C64.5358 30.07 64.8533 29.98 65.2083 29.98C65.4033 29.98 65.5908 30.0125 65.7708 30.0775C65.9558 30.1375 66.1208 30.2225 66.2658 30.3325C66.4108 30.4375 66.5233 30.555 66.6033 30.685C66.6883 30.81 66.7308 30.9375 66.7308 31.0675L66.5058 31.0825V28.45H67.2783V34H66.5058V33.0625H66.6558C66.6558 33.1825 66.6158 33.3025 66.5358 33.4225C66.4558 33.5375 66.3483 33.645 66.2133 33.745C66.0833 33.845 65.9308 33.925 65.7558 33.985C65.5858 34.045 65.4108 34.075 65.2308 34.075ZM65.3358 33.4075C65.5708 33.4075 65.7783 33.3475 65.9583 33.2275C66.1383 33.1075 66.2783 32.945 66.3783 32.74C66.4833 32.53 66.5358 32.2925 66.5358 32.0275C66.5358 31.7625 66.4833 31.5275 66.3783 31.3225C66.2783 31.1125 66.1383 30.9475 65.9583 30.8275C65.7783 30.7075 65.5708 30.6475 65.3358 30.6475C65.1008 30.6475 64.8933 30.7075 64.7133 30.8275C64.5333 30.9475 64.3908 31.1125 64.2858 31.3225C64.1858 31.5275 64.1358 31.7625 64.1358 32.0275C64.1358 32.2925 64.1858 32.53 64.2858 32.74C64.3908 32.945 64.5333 33.1075 64.7133 33.2275C64.8933 33.3475 65.1008 33.4075 65.3358 33.4075Z" fill="white"></path><path d="M54.6829 7.57295C54.6829 9.6368 53.0664 11.1576 51.0826 11.1576C49.0989 11.1576 47.4824 9.6368 47.4824 7.57295C47.4824 5.49455 49.0989 3.98828 51.0826 3.98828C53.0664 3.98828 54.6829 5.49455 54.6829 7.57295ZM53.1069 7.57295C53.1069 6.28325 52.17 5.40082 51.0826 5.40082C49.9953 5.40082 49.0584 6.28325 49.0584 7.57295C49.0584 8.84973 49.9953 9.74509 51.0826 9.74509C52.17 9.74509 53.1069 8.84811 53.1069 7.57295Z" fill="white"></path><path d="M62.4505 7.57295C62.4505 9.6368 60.834 11.1576 58.8502 11.1576C56.8665 11.1576 55.25 9.6368 55.25 7.57295C55.25 5.49617 56.8665 3.98828 58.8502 3.98828C60.834 3.98828 62.4505 5.49455 62.4505 7.57295ZM60.8744 7.57295C60.8744 6.28325 59.9376 5.40082 58.8502 5.40082C57.7629 5.40082 56.826 6.28325 56.826 7.57295C56.826 8.84973 57.7629 9.74509 58.8502 9.74509C59.9376 9.74509 60.8744 8.84811 60.8744 7.57295Z" fill="white"></path><path d="M69.8918 4.20485V10.6404C69.8918 13.2877 68.3287 14.369 66.4809 14.369C64.7414 14.369 63.6945 13.2069 63.2997 12.2566L64.6719 11.6861C64.9162 12.2695 65.5149 12.958 66.4793 12.958C67.6621 12.958 68.3951 12.2291 68.3951 10.857V10.3415H68.3401C67.9873 10.7762 67.3077 11.156 66.4501 11.156C64.6557 11.156 63.0117 9.59478 63.0117 7.58588C63.0117 5.56243 64.6557 3.98828 66.4501 3.98828C67.3061 3.98828 67.9857 4.36808 68.3401 4.7899H68.3951V4.20646H69.8918V4.20485ZM68.5067 7.58588C68.5067 6.32365 67.6637 5.40082 66.5909 5.40082C65.5036 5.40082 64.5926 6.32365 64.5926 7.58588C64.5926 8.83518 65.5036 9.74509 66.5909 9.74509C67.6637 9.74509 68.5067 8.83518 68.5067 7.58588Z" fill="white"></path><path d="M72.3614 0.433594V10.9387H70.8242V0.433594H72.3614Z" fill="white"></path><path d="M78.3518 8.75242L79.575 9.56697C79.1802 10.1504 78.2288 11.1557 76.5848 11.1557C74.5461 11.1557 73.0234 9.58152 73.0234 7.571C73.0234 5.43927 74.559 3.98633 76.4085 3.98633C78.2709 3.98633 79.1818 5.46674 79.4796 6.26675L79.643 6.67402L74.8454 8.65868C75.2127 9.37788 75.7839 9.74475 76.5848 9.74475C77.3874 9.74475 77.944 9.3504 78.3518 8.75242ZM74.5865 7.46271L77.7935 6.1326C77.6172 5.68493 77.0864 5.373 76.4619 5.373C75.6609 5.373 74.5461 6.07927 74.5865 7.46271Z" fill="white"></path><path d="M41.6637 6.64005V5.11923H46.7946C46.8448 5.38428 46.8706 5.69782 46.8706 6.03721C46.8706 7.17823 46.5584 8.58915 45.5519 9.59441C44.573 10.6126 43.3222 11.1556 41.6653 11.1556C38.5942 11.1556 36.0117 8.65703 36.0117 5.58953C36.0117 2.52204 38.5942 0.0234375 41.6653 0.0234375C43.3643 0.0234375 44.5746 0.6893 45.484 1.55718L44.4096 2.63032C43.7575 2.01941 42.874 1.54426 41.6637 1.54426C39.421 1.54426 37.667 3.34952 37.667 5.58953C37.667 7.82955 39.421 9.63481 41.6637 9.63481C43.1183 9.63481 43.9468 9.05137 44.4775 8.52127C44.9079 8.09137 45.1911 7.47722 45.3027 6.63843L41.6637 6.64005Z" fill="white"></path><path d="M40.224 15.8065L38.644 20.1721H41.8678L40.275 15.8065H40.224ZM37.2805 23.9521H35.9043L39.5487 14.2792H40.9631L44.6075 23.9521H43.2313L42.3011 21.3303H38.2235L37.2805 23.9521Z" fill="white"></path><path d="M45.2344 17.3336H46.4322V18.2499H46.4832C46.6679 17.9286 46.9578 17.6613 47.3496 17.4481C47.7479 17.2286 48.1556 17.1172 48.5729 17.1172C49.3885 17.1172 50.0129 17.3526 50.4461 17.8172C50.8857 18.2754 51.1087 18.9341 51.1087 19.79V23.9519H49.8599V19.8791C49.8345 18.794 49.2897 18.2499 48.2289 18.2499C47.7351 18.2499 47.3178 18.4536 46.9801 18.8609C46.6488 19.2618 46.4832 19.7359 46.4832 20.2864V23.9519H45.2344V17.3336Z" fill="white"></path><path d="M53.414 21.9282C53.414 22.2528 53.5478 22.5232 53.8217 22.7428C54.0925 22.956 54.4143 23.061 54.7902 23.061C55.3062 23.061 55.7713 22.8701 56.1791 22.4882C56.5932 22.1 56.8035 21.6418 56.8035 21.1137C56.4117 20.8082 55.8669 20.6555 55.1724 20.6555C54.6691 20.6555 54.2486 20.7796 53.9109 21.0246C53.5796 21.2632 53.414 21.5655 53.414 21.9282ZM55.0195 17.1172C55.937 17.1172 56.657 17.3654 57.1858 17.8554C57.721 18.3486 57.9886 19.0231 57.9886 19.8791V23.9519H56.8035V23.0355H56.7525C56.2333 23.7928 55.5452 24.1683 54.6882 24.1683C53.9555 24.1683 53.3439 23.9519 52.8533 23.5192C52.3691 23.0864 52.127 22.5487 52.127 21.9028C52.127 21.2155 52.385 20.6746 52.9043 20.2736C53.4203 19.8663 54.1148 19.6627 54.9813 19.6627C55.7204 19.6627 56.3256 19.7963 56.8035 20.0573V19.7773C56.8035 19.3445 56.6283 18.9818 56.281 18.6827C55.9402 18.3772 55.542 18.2245 55.0832 18.2245C54.3856 18.2245 53.8376 18.5172 53.4394 19.1027L52.3436 18.4154C52.9457 17.5499 53.8376 17.1172 55.0195 17.1172Z" fill="white"></path><path d="M60.5925 14.2793V23.9523H59.3438V14.2793H60.5925Z" fill="white"></path><path d="M67.9348 17.334L63.7807 26.867H62.5064L64.0483 23.5324L61.3086 17.334H62.6593L64.6344 22.0942H64.6599L66.584 17.334H67.9348Z" fill="white"></path><path d="M71.3551 24.0564C70.8199 24.0564 70.3739 23.8909 70.0171 23.56C69.6603 23.2291 69.4756 22.7677 69.4692 22.1727V18.4689H68.2969V17.3362H69.4692V15.3125H70.7052V17.3362H72.3363V18.4689H70.7052V21.7654C70.7052 22.2077 70.7881 22.51 70.9601 22.6691C71.1385 22.8218 71.3328 22.8981 71.5462 22.8981C71.6482 22.8981 71.7438 22.8918 71.8393 22.8727C71.9317 22.8472 72.0209 22.8186 72.1069 22.7836L72.4892 23.8909C72.1643 23.9991 71.7884 24.0564 71.3551 24.0564Z" fill="white"></path><path d="M75.0612 15.0559C75.0612 15.2946 74.972 15.5014 74.7936 15.6796C74.6216 15.8514 74.4177 15.9341 74.182 15.9341C73.9335 15.9341 73.7264 15.8514 73.5576 15.6796C73.3856 15.5014 73.3027 15.2946 73.3027 15.0559C73.3027 14.8109 73.3856 14.6041 73.5576 14.4323C73.7264 14.2636 73.9335 14.1777 74.182 14.1777C74.4177 14.1777 74.6216 14.2636 74.7936 14.4323C74.972 14.6041 75.0612 14.8109 75.0612 15.0559ZM74.8064 17.3342V23.9525H73.5576V17.3342H74.8064Z" fill="white"></path><path d="M78.9999 24.1683C78.0124 24.1683 77.1969 23.8342 76.5534 23.1628C75.9162 22.4851 75.5977 21.645 75.5977 20.6427C75.5977 19.6245 75.9162 18.7845 76.5534 18.1227C77.1969 17.4545 78.0124 17.1172 78.9999 17.1172C79.6785 17.1172 80.2678 17.289 80.7712 17.6263C81.2713 17.9668 81.6504 18.4345 81.9053 19.0263L80.7712 19.4972C80.4207 18.6668 79.8059 18.2499 78.9235 18.2499C78.3532 18.2499 77.8595 18.479 77.4453 18.9372C77.0376 19.3954 76.8337 19.965 76.8337 20.6427C76.8337 21.3237 77.0376 21.89 77.4453 22.3482C77.8595 22.8064 78.3532 23.0355 78.9235 23.0355C79.8314 23.0355 80.4685 22.6219 80.8349 21.7882L81.9435 22.2591C81.7046 22.8542 81.3255 23.3219 80.8094 23.6592C80.2901 23.9965 79.688 24.1683 78.9999 24.1683Z" fill="white"></path><path d="M88.0986 22.1191C88.0986 22.6982 87.8437 23.1851 87.334 23.5828C86.8307 23.971 86.1999 24.1683 85.4354 24.1683C84.7727 24.1683 84.1866 23.9933 83.6769 23.6464C83.1735 23.2996 82.8136 22.8414 82.5938 22.2719L83.7024 21.8009C83.8712 22.2019 84.1101 22.5105 84.4159 22.7301C84.7281 22.9528 85.069 23.061 85.4354 23.061C85.8336 23.061 86.1649 22.9782 86.4293 22.8064C86.7001 22.6378 86.837 22.4341 86.837 22.1955C86.837 21.7723 86.5089 21.4637 85.8559 21.2664L84.7218 20.9864C83.4284 20.6555 82.7849 20.0318 82.7849 19.1154C82.7849 18.514 83.0302 18.0304 83.524 17.6645C84.0146 17.3017 84.6453 17.1172 85.4099 17.1172C85.996 17.1172 86.5248 17.2572 87.0027 17.5372C87.4774 17.8172 87.8087 18.1927 87.9966 18.6572L86.888 19.1154C86.7606 18.8354 86.5503 18.619 86.2636 18.4663C85.9833 18.3072 85.6679 18.2245 85.3207 18.2245C84.9957 18.2245 84.7027 18.3072 84.4414 18.4663C84.1866 18.6286 84.0592 18.829 84.0592 19.0645C84.0592 19.44 84.4159 19.7104 85.1295 19.8791L86.1235 20.1336C87.4391 20.4582 88.0986 21.12 88.0986 22.1191Z" fill="white"></path><path d="M22.1914 4.23181V30.8318C22.1914 33.8105 24.2468 35.4667 26.4282 35.4667C28.4457 35.4667 30.665 34.0561 30.665 30.8318V4.43333C30.665 1.70658 28.6475 0 26.4282 0C24.2089 0 22.1914 1.8829 22.1914 4.23181Z" fill="white"></path><path d="M11.0977 17.7318V30.8303C11.0977 33.8089 13.153 35.4651 15.3345 35.4651C17.352 35.4651 19.5713 34.0545 19.5713 30.8303V17.9333C19.5713 15.2066 17.5537 13.5 15.3345 13.5C13.1152 13.5 11.0977 15.3829 11.0977 17.7318Z" fill="white"></path><path d="M8.47362 31.2357C8.47362 33.572 6.57588 35.4675 4.23681 35.4675C1.89774 35.4675 0 33.572 0 31.2357C0 28.8994 1.89774 27.0039 4.23681 27.0039C6.57588 27.0039 8.47362 28.8994 8.47362 31.2357Z" fill="white"></path></svg>