<svg xmlns="http://www.w3.org/2000/svg" width="141" height="23" viewBox="0 0 141 23" fill="none"><g clip-path="url(#clip0_529_1187)"><path d="M0.6 10.4996C1.1 7.89961 3.4 6.09961 6.6 6.09961C10.3 6.09961 13.2 7.69961 13.2 12.6996V21.9996H10L9.6 19.9996C8.5 21.3996 7 22.2996 4.8 22.2996C2.1 22.2996 0 20.5996 0 17.4996C0 14.3996 2.8 12.3996 6.7 12.3996H9.3V11.6996C9.3 9.89961 8 9.39961 6.5 9.39961C5.4 9.39961 4.3 9.79961 3.8 11.1996L0.6 10.4996ZM5.7 18.9996C7.5 18.9996 9.3 17.7996 9.3 15.7996V15.4996H6.8C5.1 15.3996 4.1 16.0996 4.1 17.4996C4.1 18.1996 4.7 18.9996 5.7 18.9996Z" fill="white"></path><path d="M76.0004 10.4996C76.5004 7.89961 78.8004 6.09961 82.0004 6.09961C85.7004 6.09961 88.6004 7.69961 88.6004 12.6996V21.9996H85.4004L85.0004 19.9996C83.9004 21.3996 82.4004 22.2996 80.2004 22.2996C77.5004 22.2996 75.4004 20.5996 75.4004 17.4996C75.4004 14.3996 78.2004 12.3996 82.1004 12.3996H84.7004V11.6996C84.7004 9.89961 83.4004 9.39961 81.9004 9.39961C80.8004 9.39961 79.7004 9.79961 79.2004 11.1996L76.0004 10.4996ZM81.1004 18.9996C82.9004 18.9996 84.7004 17.7996 84.7004 15.7996V15.4996H82.1004C80.4004 15.4996 79.4004 16.0996 79.4004 17.4996C79.5004 18.1996 80.1004 18.9996 81.1004 18.9996Z" fill="white"></path><path d="M92.0996 22.0996V6.29961H95.9996V8.89961C97.0996 6.99961 98.8996 6.09961 100.6 6.09961C101.3 6.09961 101.9 6.19961 102.5 6.39961L101.8 9.99961C101.3 9.69961 100.8 9.49961 100.2 9.49961C97.8996 9.49961 95.9996 11.3996 95.9996 16.3996V21.9996L92.0996 22.0996Z" fill="white"></path><path d="M110.799 6.1C112.399 6.1 113.899 6.9 114.599 7.8V0H118.499V22.1H114.599V20.5C114.099 21.3 112.699 22.4 110.799 22.4C106.099 22.4 103.699 19.1 103.699 14.3C103.699 9.5 106.099 6.1 110.799 6.1ZM111.399 19C113.399 19 114.999 17.3 114.999 14.2C114.999 11.1 113.399 9.4 111.399 9.4C109.399 9.4 107.799 11.1 107.799 14.2C107.799 17.3 109.399 19 111.399 19Z" fill="white"></path><path d="M132.5 8.60039L130.2 10.7004C129.5 9.70039 128.4 9.30039 127.6 9.30039C126.8 9.30039 126.1 9.80039 126.1 10.6004C126.1 11.3004 126.7 11.8004 127.6 12.1004C129.8 12.9004 133.3 13.6004 133.3 16.9004C133.3 19.8004 131.1 22.1004 127.7 22.1004C124.4 22.1004 122.2 19.8004 121.5 17.9004L124.6 16.2004C125.2 17.7004 126.2 18.8004 127.8 18.8004C129 18.8004 129.8 18.2004 129.8 17.1004C129.8 15.8004 127.8 15.5004 125.9 14.7004C124.2 14.0004 122.7 12.9004 122.7 10.5004C122.7 8.10039 124.7 5.90039 127.7 5.90039C129.7 6.00039 131.6 7.10039 132.5 8.60039Z" fill="white"></path><path d="M51.9 6.30078L49.1 17.2008L46.4 6.30078H42.8L40.2 17.2008L38 10.9008L37.7 11.6008L36.5 15.7008L38.5 22.1008H41.9L44.6 11.9008L47.3 22.1008H50.8L55.8 6.30078H51.9Z" fill="white"></path><path d="M70.5996 6.30078L67.7996 17.2008L65.0996 6.30078H61.4996L58.8996 17.2008L56.6996 10.9008L56.3996 11.6008L55.0996 15.7008L57.1996 22.1008H60.5996L63.2996 11.9008L65.9996 22.1008H69.3996L74.4996 6.30078H70.5996Z" fill="white"></path><path d="M37.1004 6.30078L32.1004 22.0008H28.7004L26.0004 11.9008L23.3004 22.1008H19.9004L14.9004 6.40078H18.8004L21.6004 17.2008L24.3004 6.40078H27.9004L30.6004 17.2008L33.4004 6.40078L37.1004 6.30078Z" fill="white"></path><path d="M138.401 17C139.901 17 141.001 18.1 141.001 19.6C141.001 21.1 139.901 22.2 138.401 22.2C136.901 22.2 135.801 21.1 135.801 19.6C135.801 18.1 136.901 17 138.401 17Z" fill="white"></path></g><defs><clipPath id="clip0_529_1187"><rect width="141" height="22.3" fill="white"></rect></clipPath></defs></svg>