<svg xmlns="http://www.w3.org/2000/svg" width="94" height="27" viewBox="0 0 94 27" fill="none"><g clip-path="url(#clip0_529_1198)"><path d="M24.4688 0H28.7461V27H24.4688V0ZM43.7169 18.387C43.7169 22.5191 40.2769 22.8485 39.2535 22.8485C36.6967 22.8485 36.2315 20.4314 36.2315 18.9734V8.64H31.9542V18.9518C31.9542 21.5114 32.7498 23.6239 34.1442 25.0322C35.3761 26.2775 37.2217 26.9579 39.2214 26.9579C40.6394 26.9579 42.6476 26.5118 43.7169 25.5258V27H47.9943V8.64H43.7169V18.387ZM56.5491 2.16H52.2717V8.64H49.0637V12.96H52.2717V27H56.5491V12.96H59.7571V8.64H56.5491V2.16ZM73.2276 21.5104C72.2962 22.356 71.0665 22.8247 69.717 22.8247C66.7421 22.8247 64.5574 20.6183 64.5574 17.5889C64.5574 14.5595 66.6726 12.4459 69.717 12.4459C71.043 12.4459 72.2962 12.892 73.2512 13.7376L73.9002 14.3014L76.7843 11.3897L76.0625 10.732C74.3654 9.18432 72.1123 8.316 69.7159 8.316C64.3692 8.316 60.4864 12.2126 60.4864 17.5662C60.4864 22.8971 64.4622 26.933 69.7159 26.933C72.1572 26.933 74.4338 26.0647 76.1095 24.4922L76.8067 23.8345L73.8778 20.925L73.2276 21.5104ZM92.0513 10.2406C90.8194 8.9964 89.3758 8.316 87.3761 8.316C85.9582 8.316 84.352 8.76204 83.2827 9.747V0H79.0053V27H83.2827V16.8858C83.2827 12.7537 86.1891 12.4254 87.2125 12.4254C89.7693 12.4254 89.6987 14.8435 89.6987 16.2994V27H93.9761V16.322C93.9761 13.7624 93.4468 11.65 92.0513 10.2406Z" fill="white"></path><path d="M69.5769 14.5117C70.3971 14.5117 71.1837 14.8408 71.7637 15.4265C72.3436 16.0123 72.6695 16.8067 72.6695 17.6351C72.6695 18.4634 72.3436 19.2579 71.7637 19.8436C71.1837 20.4294 70.3971 20.7584 69.5769 20.7584C68.7567 20.7584 67.9701 20.4294 67.3902 19.8436C66.8102 19.2579 66.4844 18.4634 66.4844 17.6351C66.4844 16.8067 66.8102 16.0123 67.3902 15.4265C67.9701 14.8408 68.7567 14.5117 69.5769 14.5117Z" fill="white"></path><path d="M18.4814 20.2185C16.8549 21.9087 14.6456 22.8246 12.3209 22.8246C7.5559 22.8246 4.09122 19.0446 4.09122 13.8563C4.09122 8.64418 7.5559 4.86418 12.3209 4.86418C14.6232 4.86418 16.8079 5.77894 18.4589 7.44646L19.1091 8.10418L21.9685 5.21626L21.3408 4.55854C18.9701 2.0929 15.762 0.755859 12.3209 0.755859C5.30065 0.755859 0.0234375 6.39022 0.0234375 13.8789C0.0234375 21.345 5.32417 26.9567 12.3209 26.9567C15.7856 26.9567 18.9936 25.5959 21.3643 23.1302L21.992 22.4725L19.1561 19.5381L18.4814 20.2185Z" fill="white"></path></g><defs><clipPath id="clip0_529_1198"><rect width="94" height="27" fill="white"></rect></clipPath></defs></svg>